# xmcd
#
# Track frame offsets: 
#        150
#        24880
#        42160
#        61627
#        83790
#        95222
#        107170
#        134842
#        154330
#        183125
#
# Disc length: 2597 seconds
#
# Revision: 6
# Processed by: cddbd v1.5.2PL0 Copyright (c) Steve Scherf et al.
# Submitted via: ExactAudioCopy v0.99pb5
#
DISCID=7d0a230a
DTITLE=U2 - The Unforgettable Fire [1995 MFSL Remaster]
DYEAR=1984
DGENRE=Rock
TTITLE0=A Sort Of Homecoming
TTITLE1=Pride (In The Name Of Love)
TTITLE2=Wire
TTITLE3=The Unforgettable Fire
TTITLE4=Promenade
TTITLE5=4th Of July
TTITLE6=Bad
TTITLE7=Indian Summer Sky
TTITLE8=Elvis Presley And America
TTITLE9=MLK
EXTD=Mobile Fidelity Sound Labs Ultradisc II version.
EXTT0=
EXTT1=
EXTT2=
EXTT3=
EXTT4=
EXTT5=
EXTT6=
EXTT7=
EXTT8=
EXTT9=
PLAYORDER=
